PathFileType	4	(X/Y/Z)	/Users/visionmauri/1_8_1_f_Sports2D/1_8_1_f_Sports2D_px_person00.trc
DataRate	CameraRate	NumFrames	NumMarkers	Units	OrigDataRate	OrigDataStartFrame	OrigNumFrames
30.0	30.0	10	22	m	30.0	0	358
Frame#	Time	Hip			RHip			RKnee			RAnkle			RBigToe			RSmallToe			RHeel			LHip			LKnee			LAnkle			LBigToe			LSmallToe			LHeel			Neck			Head			Nose			RShoulder			RElbow			RWrist			LShoulder			LElbow			LWrist			
		X1	Y1	Z1	X2	Y2	Z2	X3	Y3	Z3	X4	Y4	Z4	X5	Y5	Z5	X6	Y6	Z6	X7	Y7	Z7	X8	Y8	Z8	X9	Y9	Z9	X10	Y10	Z10	X11	Y11	Z11	X12	Y12	Z12	X13	Y13	Z13	X14	Y14	Z14	X15	Y15	Z15	X16	Y16	Z16	X17	Y17	Z17	X18	Y18	Z18	X19	Y19	Z19	X20	Y20	Z20	X21	Y21	Z21	X22	Y22	Z22
0	0.0	528.7827627983706	888.3793670347529	0.0	621.2664894666331	928.0155529798537	0.0	612.4592438156745	1275.9333235650017	0.0	599.2471285368321	1637.0617324585178	0.0	581.6303537212389	1663.485825177223	0.0	647.6905782156405	1694.3141870568654	0.0	594.8433520964102	1698.7182311748634	0.0	440.7022673364008	914.8030417242707	0.0	449.51054467929714	1143.8123686109989	0.0	449.5106409159346	1482.9209394054806	0.0	467.1261010331548	1548.984092948572	0.0	401.0667900283543	1544.5783465425325	0.0	453.91437294209214	1553.3852622560498	0.0	506.7625922270524	412.74503224901866	0.0	449.5102407494965	258.6046631083575	0.0	401.0653055322289	381.91747892111226	0.0	669.712289114787	469.9980341002575	0.0	762.1958989753421	699.006793519019	0.0	797.428057517606	879.5707892715266	0.0	365.8335001843308	452.38163791874456	0.0	286.56138777098147	707.8143962457668	0.0	339.41010706667106	703.4112209468449	0.0
1	0.03342670401493931	527.0804870340618	888.9729106559809	0.0	619.5918095746621	925.0905655971095	0.0	613.9229318621302	1271.8343329104923	0.0	599.0495490734123	1638.5384506329194	0.0	585.2758842610117	1663.1561179889409	0.0	650.3873316076252	1694.2017152657593	0.0	593.2366265674949	1700.0032022093937	0.0	439.2542817567227	913.6716817239551	0.0	447.7776302683446	1157.5216465366807	0.0	449.58387373782153	1493.7317406162504	0.0	468.0519833168998	1555.2242577670193	0.0	402.6602613403542	1553.058025701912	0.0	452.6200284453771	1562.9502805165055	0.0	505.29858941548576	414.1242870062393	0.0	446.25652566914636	258.0295201718141	0.0	398.5008932214823	381.3217479183622	0.0	666.7114313364818	469.45194878667587	0.0	760.2599461438299	697.1158510996123	0.0	797.3275548856316	877.795523945662	0.0	364.6209391532134	453.12353727621746	0.0	283.69201523078283	707.0393544907954	0.0	333.8888914811885	708.3479988879575	0.0
2	0.06685340802987862	524.7363048749818	888.3174662945144	0.0	617.142315505575	920.6572374673583	0.0	615.718234324871	1265.6479158648328	0.0	599.0152166979726	1634.5148723918164	0.0	590.7444644381405	1660.0417566522262	0.0	652.3490812798314	1688.4121533608966	0.0	591.7395775305688	1694.512035468955	0.0	437.8407057258423	910.7962554943567	0.0	445.4664728149471	1170.2496444182143	0.0	449.5971341777249	1509.1570407177787	0.0	466.6852164994202	1568.8265444860608	0.0	402.62209133915104	1569.9354162807858	0.0	452.1294717787781	1579.266889050394	0.0	502.5951542192316	416.66393207837876	0.0	441.61999129560706	257.6057771279754	0.0	396.0072504817015	380.8307594439908	0.0	662.4599661614641	469.2727306981664	0.0	756.592011529771	694.8814736571408	0.0	797.0547386102847	876.2973887348369	0.0	361.64027698658697	454.2641142725934	0.0	280.9438697133788	706.0565367840801	0.0	326.9584353503377	711.7107502285727	0.0
3	0.10028011204481793	522.4444474255077	886.8916126262818	0.0	614.4278280675277	917.0340774478598	0.0	617.1396170758849	1258.7138633778568	0.0	599.593696745636	1621.1443811460767	0.0	596.342374637367	1655.4722596842228	0.0	653.1253714989075	1677.6886863098048	0.0	590.9741695538395	1678.92989975047	0.0	436.9053130784237	907.2357856233336	0.0	443.4911347819675	1179.130956218711	0.0	449.50484546412946	1522.9680747154384	0.0	463.57207714462896	1589.6456622033963	0.0	400.6936850755175	1593.2083181759679	0.0	452.7085702015188	1597.757763170619	0.0	499.0029549906132	419.2059785696547	0.0	437.628168553165	258.3051749685837	0.0	394.14879715922746	381.2697646374907	0.0	657.5472751078792	469.73572093070123	0.0	752.0724537042217	692.5375046006137	0.0	796.5654786020542	875.0371161531348	0.0	357.0497247764146	456.3915774800769	0.0	279.17783551245583	705.8816749792592	0.0	320.1740889653102	711.9007081318301	0.0
4	0.13370681605975723	520.2887679706109	886.8697893387324	0.0	611.5199163813559	916.0843836578586	0.0	617.4279665408027	1251.5666018751447	0.0	600.9954590798524	1599.2206374573207	0.0	600.9969643320424	1652.686622456129	0.0	653.6331348562749	1667.7934490745113	0.0	590.5555635041387	1656.0706600931753	0.0	435.9132139327291	905.041322286676	0.0	442.3549325117295	1188.086027838767	0.0	449.3347675896845	1529.0291876409763	0.0	461.0581124016487	1609.6244256027228	0.0	399.4078266581906	1613.3988871113102	0.0	453.47439922197003	1608.9602401159525	0.0	495.2526740972261	419.9390836383909	0.0	437.2059228862478	260.66781609655897	0.0	394.0078100112606	383.1324978325318	0.0	652.3285159625262	470.34719686874865	0.0	748.0184299158666	690.0020438859865	0.0	796.2704983130036	873.5880693758891	0.0	352.2218715653012	460.14142564998144	0.0	277.855876156783	707.96717288837	0.0	315.04770975857093	710.397468471654	0.0
5	0.16713352007469653	517.4164330408769	888.6971075891305	0.0	607.7417156574649	914.8987655356411	0.0	616.9237957344394	1241.4316289927528	0.0	602.3539926808489	1574.2742813632606	0.0	605.219240806267	1650.2150029008565	0.0	654.180922699789	1660.0463463219653	0.0	589.1120420759343	1632.2918846621446	0.0	433.77352235789084	904.3434635732588	0.0	441.68198163510453	1200.295680148231	0.0	449.14085341702804	1530.3490115004304	0.0	459.71508800879946	1620.4573359212015	0.0	400.9333979692213	1623.7442313259762	0.0	453.40456362232817	1610.984483213099	0.0	491.27022382274856	419.3245035372039	0.0	440.5625911225589	263.5957288930676	0.0	398.34772077677553	385.3836239940666	0.0	646.7502291295763	470.7780289460594	0.0	744.4080129690628	687.7492423142312	0.0	796.8754639968224	872.559482398391	0.0	347.7072131999364	464.84774626835963	0.0	276.04720019502054	711.6859430279509	0.0	310.2201270271736	713.0788453604558	0.0
6	0.20056022408963586	514.4524214172644	890.2005877263019	0.0	603.6026001705729	910.9255528676443	0.0	616.4556165348791	1227.5024884011204	0.0	602.2268166028665	1551.96334578059	0.0	608.1186376724802	1643.5149841722173	0.0	653.5758910536613	1649.8769840444604	0.0	586.505433979812	1612.1135995512968	0.0	431.2488506304385	904.2544099455694	0.0	441.8559179788508	1208.2451509112877	0.0	449.0214033576076	1530.2008202510156	0.0	458.2660063306216	1621.8372490588936	0.0	403.1684866234923	1625.6435643633126	0.0	452.5177457362453	1609.8036292232118	0.0	487.2752677191354	418.6563302389177	0.0	445.07419396995425	266.0325973771126	0.0	408.4813983223691	386.6362546478526	0.0	642.1975194028645	471.6023577632913	0.0	741.381465936171	687.3062124912843	0.0	798.3119730827768	872.9691369515291	0.0	343.58011155560456	468.3878755851814	0.0	274.5144536300649	714.5237852584877	0.0	302.77635255155684	724.283398629928	0.0
7	0.23398692810457516	512.8073632429465	889.8652841950784	0.0	600.4382630701105	906.4750970892871	0.0	615.9432131361415	1213.4177979759124	0.0	600.3060190235818	1534.8453460421056	0.0	609.5082621217982	1630.7367179560001	0.0	651.3525391030086	1634.2319402053272	0.0	584.1897533626274	1596.4060322022035	0.0	430.1694658336748	904.3944305879213	0.0	443.02876903926375	1205.745001635358	0.0	449.0396865968315	1526.9629746540168	0.0	455.78275012159276	1619.3064978437787	0.0	402.5596629955521	1624.3883644116847	0.0	451.27300298788447	1608.2845189509296	0.0	484.3416681025234	418.0006052312446	0.0	447.9242072083152	268.1088739848544	0.0	420.645479763835	386.40328440309764	0.0	639.9021971155483	472.76198585041806	0.0	739.0696004813352	688.4022045280841	0.0	799.5135358528945	874.20738260558	0.0	340.4518978251911	470.1062423344818	0.0	273.7448996501486	716.1338321216826	0.0	293.79862630487	739.2090835360789	0.0
8	0.26741363211951447	512.3038145614961	887.7552056711957	0.0	599.0502984103475	903.8501665123779	0.0	614.6006386272988	1202.6886172810089	0.0	597.6841128538922	1523.7413314606808	0.0	610.4229570227551	1611.1149652395106	0.0	648.5508652815018	1613.2014118734676	0.0	583.0463429530489	1584.299629908306	0.0	430.78591356507536	904.3977136188602	0.0	444.00488732657493	1198.6444845451606	0.0	448.66054671317187	1520.8649032159235	0.0	453.72207656983005	1617.2186212466997	0.0	399.9366196870108	1623.0833720848466	0.0	449.2595618471062	1602.1286335675659	0.0	482.7270391057435	417.5299123033205	0.0	449.34703569025913	269.81255990682877	0.0	431.78865996294553	384.40023258081845	0.0	638.4228711774484	473.2275852490598	0.0	736.6811106892118	688.2155589263134	0.0	799.7006953898168	875.0064647340184	0.0	338.15877510152114	471.9805314809491	0.0	272.9255929749996	718.2700900918303	0.0	289.09913721906463	749.3125588179552	0.0
9	0.30084033613445377	512.6654283298587	884.8949326335156	0.0	599.9241557756701	901.7945249712071	0.0	612.1952092872956	1196.002410917536	0.0	595.1163788371581	1518.556688622001	0.0	608.9522592159755	1585.491951895662	0.0	646.0801355946459	1589.500245419141	0.0	582.4056106216243	1575.9872378747564	0.0	432.44612045367006	903.6830130702036	0.0	444.16553253421165	1196.638752399904	0.0	447.02106079131084	1515.9354234769662	0.0	454.7822957849257	1617.6326385981313	0.0	399.36388012315234	1622.7102654694459	0.0	446.1330505089077	1590.5643942540846	0.0	481.4629226206962	418.1165307081057	0.0	451.8267133599904	270.9871804188029	0.0	442.93053890330845	381.5859824342778	0.0	635.6219556103077	472.87653611858286	0.0	734.276808210213	685.5094307344631	0.0	799.2135856411323	874.8402981016629	0.0	336.0683254691905	475.2350588782698	0.0	271.84784026392236	720.6056778616048	0.0	290.4648972957055	751.980994892495	0.0
